<svg width="264" height="264" viewBox="0 0 264 264" fill="none" xmlns="http://www.w3.org/2000/svg">
<g clip-path="url(#clip0_96_56)">
<g filter="url(#filter0_i_96_56)">
<path d="M132 264C59.0984 264 -8.95653e-06 204.902 -5.7699e-06 132C-2.58327e-06 59.0984 59.0984 -8.95653e-06 132 -5.7699e-06C204.902 -2.58327e-06 264 59.0984 264 132C264 204.902 204.902 264 132 264Z" fill="#201547"/>
</g>
<path d="M130.616 3.33918C130.928 2.45457 132.18 2.45457 132.491 3.33918L162.556 88.6828C162.694 89.0734 163.059 89.3378 163.474 89.3461L254.997 91.1864C255.942 91.2054 256.33 92.4084 255.573 92.9747L182.646 147.53C182.31 147.781 182.168 148.215 182.291 148.616L208.797 235.063C209.072 235.962 208.059 236.705 207.283 236.173L132.117 184.562C131.778 184.329 131.33 184.329 130.991 184.562L55.8244 236.173C55.0487 236.705 54.0354 235.962 54.3112 235.063L80.8166 148.616C80.9394 148.215 80.7975 147.781 80.4619 147.53L7.53507 92.9747C6.7781 92.4084 7.16536 91.2054 8.11075 91.1864L99.6342 89.3461C100.049 89.3378 100.414 89.0734 100.552 88.6828L130.616 3.33918Z" fill="#B58F4C"/>
<path d="M163.217 147.066H154.866L153.998 151.755C154.983 151.306 156.043 151.081 157.178 151.081C159.405 151.081 161.247 151.927 162.703 153.618C164.009 155.117 164.662 156.948 164.662 159.111C164.662 161.68 163.784 163.758 162.029 165.342C160.508 166.713 158.656 167.398 156.472 167.398C154.116 167.398 152.157 166.616 150.594 165.053C149.266 163.704 148.495 162.044 148.281 160.074H152.328C152.435 160.952 152.799 161.713 153.42 162.355C154.17 163.147 155.165 163.543 156.407 163.543C157.799 163.543 158.87 163.083 159.62 162.162C160.262 161.37 160.583 160.363 160.583 159.143C160.583 157.623 160.091 156.456 159.106 155.642C158.335 155.021 157.403 154.71 156.311 154.71C154.919 154.71 153.709 155.171 152.682 156.091L149.726 153.715L151.557 143.211H163.538L163.217 147.066Z" fill="#F7F3F1"/>
<path d="M147.087 166.98H132.344V162.869L138.479 157.119C140.064 155.62 141.209 154.293 141.916 153.136C142.622 151.98 142.976 150.856 142.976 149.764C142.976 148.629 142.665 147.74 142.044 147.098C141.488 146.498 140.738 146.198 139.796 146.198C137.911 146.198 136.734 147.376 136.263 149.732H132.248C132.933 145.085 135.449 142.761 139.796 142.761C142.151 142.761 143.993 143.372 145.321 144.592C146.584 145.77 147.216 147.387 147.216 149.442C147.216 152.505 145.845 155.331 143.104 157.922L137.772 162.933H147.087V166.98Z" fill="#F7F3F1"/>
<path d="M130.761 151.37V158.308C130.761 161.113 130.087 163.329 128.738 164.957C127.41 166.584 125.537 167.398 123.117 167.398C120.419 167.398 118.406 166.402 117.078 164.411C116.008 162.826 115.472 160.792 115.472 158.308V151.37C115.472 148.757 116.2 146.659 117.656 145.074C119.027 143.554 120.847 142.794 123.117 142.794C125.644 142.794 127.614 143.725 129.027 145.588C130.183 147.13 130.761 149.057 130.761 151.37ZM126.682 158.211V151.723C126.682 150.096 126.382 148.843 125.783 147.965C125.162 147.087 124.273 146.648 123.117 146.648C121.832 146.648 120.89 147.183 120.29 148.254C119.798 149.111 119.551 150.267 119.551 151.723V158.211C119.551 160.01 119.819 161.327 120.354 162.162C120.933 163.083 121.853 163.543 123.117 163.543C124.509 163.543 125.483 162.997 126.04 161.905C126.468 161.049 126.682 159.817 126.682 158.211Z" fill="#F7F3F1"/>
<path d="M113.286 166.98H98.5424V162.869L104.677 157.119C106.262 155.62 107.408 154.293 108.114 153.136C108.821 151.98 109.174 150.856 109.174 149.764C109.174 148.629 108.864 147.74 108.243 147.098C107.686 146.498 106.937 146.198 105.994 146.198C104.11 146.198 102.932 147.376 102.461 149.732H98.446C99.1313 145.085 101.647 142.761 105.994 142.761C108.35 142.761 110.191 143.372 111.519 144.592C112.782 145.77 113.414 147.387 113.414 149.442C113.414 152.505 112.044 155.331 109.303 157.922L103.971 162.933H113.286V166.98Z" fill="#F7F3F1"/>
<path d="M195.901 132.565H191.95V131.57C190.794 132.512 189.381 132.983 187.71 132.983C185.312 132.983 183.31 132.105 181.704 130.349C180.312 128.829 179.616 127.041 179.616 124.985C179.616 122.608 180.505 120.638 182.282 119.075C183.802 117.704 185.612 117.019 187.71 117.019C189.338 117.019 190.751 117.49 191.95 118.433V108.796H195.901V132.565ZM191.95 124.985C191.95 123.764 191.479 122.737 190.537 121.902C189.723 121.173 188.781 120.809 187.71 120.809C186.468 120.809 185.43 121.281 184.595 122.223C183.867 123.015 183.503 123.936 183.503 124.985C183.503 126.206 183.963 127.244 184.884 128.101C185.697 128.829 186.64 129.193 187.71 129.193C188.952 129.193 190.002 128.722 190.858 127.78C191.586 126.987 191.95 126.056 191.95 124.985Z" fill="#F7F3F1"/>
<path d="M178.574 126.238H166.946C167.203 127.266 167.728 128.069 168.52 128.647C169.27 129.161 170.158 129.418 171.186 129.418C172.835 129.418 174.088 128.85 174.944 127.715L177.642 129.867C176.914 130.917 175.919 131.72 174.655 132.276C173.584 132.747 172.439 132.983 171.218 132.983C168.756 132.983 166.732 132.126 165.147 130.413C163.777 128.936 163.092 127.159 163.092 125.081C163.092 122.683 163.895 120.702 165.501 119.139C166.957 117.726 168.788 117.019 170.993 117.019C173.349 117.019 175.276 117.908 176.775 119.685C178.038 121.184 178.67 122.951 178.67 124.985C178.67 125.456 178.638 125.874 178.574 126.238ZM167.075 123.347H174.687C174.559 122.533 174.098 121.859 173.306 121.323C172.621 120.852 171.839 120.617 170.961 120.617C170.062 120.617 169.259 120.863 168.552 121.355C167.867 121.848 167.375 122.512 167.075 123.347Z" fill="#F7F3F1"/>
<path d="M158.405 121.099V132.566H154.454V121.099H152.045V117.308H154.454V112.137H158.405V117.308H162.452V121.099H158.405Z" fill="#F7F3F1"/>
<path d="M150.594 132.565H146.643V131.57C145.487 132.512 144.073 132.983 142.403 132.983C140.005 132.983 138.003 132.105 136.397 130.349C135.005 128.829 134.309 127.041 134.309 124.985C134.309 122.608 135.198 120.638 136.975 119.075C138.495 117.704 140.305 117.019 142.403 117.019C144.031 117.019 145.444 117.49 146.643 118.432V117.308H150.594V132.565ZM146.643 124.985C146.643 123.764 146.172 122.737 145.23 121.901C144.416 121.173 143.474 120.809 142.403 120.809C141.161 120.809 140.123 121.28 139.287 122.223C138.559 123.015 138.195 123.936 138.195 124.985C138.195 126.206 138.656 127.244 139.577 128.101C140.39 128.829 141.332 129.193 142.403 129.193C143.645 129.193 144.694 128.722 145.551 127.78C146.279 126.987 146.643 126.056 146.643 124.985Z" fill="#F7F3F1"/>
<path d="M134.604 132.565H129.882L124.132 122.705H121.274V132.565H117.066V108.796H126.702C129.229 108.796 131.156 109.514 132.484 110.948C133.619 112.169 134.186 113.775 134.186 115.767C134.186 117.694 133.651 119.257 132.58 120.456C131.638 121.527 130.342 122.201 128.694 122.48L134.604 132.565ZM121.274 118.657H126.766C127.816 118.657 128.629 118.368 129.207 117.79C129.721 117.298 129.978 116.634 129.978 115.799C129.978 114.814 129.646 114.053 128.983 113.518C128.426 113.068 127.687 112.844 126.766 112.844H121.274V118.657Z" fill="#F7F3F1"/>
<path d="M95.5858 140.692H91.635V117.308H95.5858V118.432C96.7422 117.49 98.1555 117.019 99.8257 117.019C102.245 117.019 104.248 117.897 105.832 119.653C107.224 121.152 107.92 122.929 107.92 124.985C107.92 127.362 107.031 129.343 105.254 130.927C103.712 132.298 101.903 132.983 99.8257 132.983C98.1555 132.983 96.7422 132.512 95.5858 131.57V140.692ZM95.5858 124.824V125.178C95.6286 126.356 96.1105 127.341 97.0312 128.133C97.845 128.84 98.7765 129.193 99.8257 129.193C101.068 129.193 102.106 128.722 102.941 127.78C103.669 126.987 104.033 126.056 104.033 124.985C104.033 123.786 103.562 122.758 102.62 121.901C101.828 121.173 100.896 120.809 99.8257 120.809C98.6051 120.809 97.5773 121.259 96.7422 122.158C96.0141 122.929 95.6286 123.818 95.5858 124.824Z" fill="#F7F3F1"/>
<path d="M89.7018 124.985C89.7018 127.362 88.8131 129.343 87.0358 130.927C85.494 132.298 83.6738 132.983 81.5753 132.983C79.177 132.983 77.1748 132.105 75.5688 130.349C74.1769 128.829 73.481 127.041 73.481 124.985C73.481 122.608 74.3696 120.638 76.147 119.075C77.6673 117.704 79.4768 117.019 81.5753 117.019C83.995 117.019 86.0079 117.897 87.6139 119.653C89.0058 121.152 89.7018 122.929 89.7018 124.985ZM85.8152 124.985C85.8152 123.764 85.3441 122.737 84.4019 121.901C83.5882 121.173 82.646 120.809 81.5753 120.809C80.3333 120.809 79.2948 121.28 78.4596 122.223C77.7316 123.015 77.3675 123.936 77.3675 124.985C77.3675 126.206 77.8279 127.244 78.7487 128.101C79.5624 128.829 80.5046 129.193 81.5753 129.193C82.8173 129.193 83.8666 128.722 84.7231 127.78C85.4512 126.987 85.8152 126.056 85.8152 124.985Z" fill="#F7F3F1"/>
<path d="M70.6832 132.565H66.4755V112.844H58.8308V108.796H78.2958V112.844H70.6832V132.565Z" fill="#F7F3F1"/>
</g>
<defs>
<filter id="filter0_i_96_56" x="0" y="0" width="264" height="265.318" filterUnits="userSpaceOnUse" color-interpolation-filters="sRGB">
<feFlood flood-opacity="0" result="BackgroundImageFix"/>
<feBlend mode="normal" in="SourceGraphic" in2="BackgroundImageFix" result="shape"/>
<feColorMatrix in="SourceAlpha" type="matrix" values="0 0 0 0 0 0 0 0 0 0 0 0 0 0 0 0 0 0 127 0" result="hardAlpha"/>
<feOffset dy="1.31835"/>
<feGaussianBlur stdDeviation="0.659176"/>
<feComposite in2="hardAlpha" operator="arithmetic" k2="-1" k3="1"/>
<feColorMatrix type="matrix" values="0 0 0 0 0.709804 0 0 0 0 0.560784 0 0 0 0 0.298039 0 0 0 1 0"/>
<feBlend mode="normal" in2="shape" result="effect1_innerShadow_96_56"/>
</filter>
<clipPath id="clip0_96_56">
<rect width="264" height="264" fill="white"/>
</clipPath>
</defs>
</svg>
