<?xml version="1.0" encoding="UTF-8"?>
<svg xmlns="http://www.w3.org/2000/svg" xmlns:xlink="http://www.w3.org/1999/xlink" version="1.1" viewBox="0 0 264 264">
  <defs>
    <style>
      .cls-1 {
        fill: none;
      }

      .cls-2 {
        fill: #f7f3f1;
      }

      .cls-3 {
        fill: #fff;
      }

      .cls-4 {
        fill: #ab8e53;
      }

      .cls-5 {
        fill: #201547;
        stroke: #ab8e53;
        stroke-width: 1.2px;
      }

      .cls-6 {
        clip-path: url(#clippath);
      }
    </style>
    <clipPath id="clippath">
      <rect class="cls-1" width="264" height="264"/>
    </clipPath>
  </defs>
  <!-- Generator: Adobe Illustrator 28.7.1, SVG Export Plug-In . SVG Version: 1.2.0 Build 142)  -->
  <g>
    <g id="Layer_1">
      <g class="cls-6">
        <g>
          <path class="cls-5" d="M131.78,263.36C59.35,263.36.64,204.65.64,132.22S59.35,1.09,131.78,1.09s131.14,58.71,131.14,131.14-58.71,131.14-131.14,131.14Z"/>
          <path class="cls-3" d="M117.86,231.05h-11.47v-2.46l5.48-5.46c2.44-2.41,3.55-3.91,3.55-5.71,0-1.9-1.24-3.27-3.17-3.27-1.8,0-2.94,1.17-3.27,3.25h-2.51c.38-3.48,2.49-5.46,5.81-5.46s5.76,1.95,5.76,5.3c0,2.54-1.4,4.54-3.35,6.49l-4.87,4.87h8.04v2.44ZM131.88,218.72v5.48c0,3.76-1.7,7.18-6.04,7.18s-6.04-3.2-6.04-7.18v-5.48c0-3.58,2-6.77,6.04-6.77s6.04,2.97,6.04,6.77ZM129.31,224.02v-4.95c0-2.41-.84-4.74-3.48-4.74s-3.5,2.16-3.5,4.74v4.95c0,2.59.61,5,3.5,5s3.48-2.18,3.48-5ZM144.26,231.05h-11.47v-2.46l5.48-5.46c2.43-2.41,3.55-3.91,3.55-5.71,0-1.9-1.24-3.27-3.17-3.27-1.8,0-2.94,1.17-3.27,3.25h-2.51c.38-3.48,2.49-5.46,5.81-5.46s5.76,1.95,5.76,5.3c0,2.54-1.4,4.54-3.35,6.49l-4.87,4.87h8.04v2.44ZM156.36,231.05h-2.54v-3.2h-8.63v-2.26l8.55-13.32h2.61v13.24h1.93v2.34h-1.93v3.2ZM153.82,225.52v-9.18h-.03l-5.76,9.18h5.78Z"/>
          <path class="cls-4" d="M130.65,3.91c.31-.88,1.56-.88,1.87,0l30.02,85.28c.14.39.5.65.92.66l91.39,1.84c.95.02,1.33,1.22.57,1.79l-72.82,54.51c-.34.25-.48.69-.35,1.09l26.47,86.38c.27.9-.74,1.64-1.51,1.11l-75.06-51.57c-.34-.23-.79-.23-1.12,0l-75.06,51.57c-.77.53-1.79-.21-1.51-1.11l26.47-86.38c.12-.4-.02-.83-.35-1.09L7.75,93.47c-.76-.57-.37-1.77.57-1.79l91.39-1.84c.41,0,.78-.27.92-.66L130.65,3.91Z"/>
          <path class="cls-2" d="M102.96,94.58h-9.77v-45.78h-17.75v-9.4h45.19v9.4h-17.67v45.78ZM145.62,76.98c0,10.22-8.35,18.57-18.87,18.57s-18.79-8.35-18.79-18.57,8.35-18.49,18.79-18.49,18.87,8.2,18.87,18.49ZM136.6,76.98c0-5.22-4.4-9.69-9.84-9.69s-9.77,4.47-9.77,9.69,4.4,9.77,9.77,9.77,9.84-4.47,9.84-9.77ZM157.79,113.45h-9.17v-54.28h9.17v2.61c2.83-2.31,6.19-3.28,9.84-3.28,10.44,0,18.79,8.2,18.79,18.49s-8.35,18.57-18.79,18.57c-3.65,0-7.01-.97-9.84-3.28v21.18ZM157.79,76.61v.82c.22,5.07,4.55,9.32,9.84,9.32s9.77-4.47,9.77-9.77-4.4-9.69-9.77-9.69-9.62,4.32-9.84,9.32Z"/>
          <path class="cls-2" d="M80.38,167h-10.96l-13.35-22.89h-6.64v22.89h-9.77v-55.18h22.37c11.26,0,17.37,6.49,17.37,16.18,0,8.28-4.47,14.17-12.75,15.59l13.72,23.41ZM49.44,134.71h12.75c4.55,0,7.46-2.46,7.46-6.64s-2.91-6.86-7.46-6.86h-12.75v13.5ZM116.01,167h-9.17v-2.31c-2.83,2.31-6.19,3.28-9.84,3.28-10.44,0-18.79-8.35-18.79-18.57s8.35-18.49,18.79-18.49c3.58,0,6.93.97,9.84,3.28v-2.61h9.17v35.42ZM106.84,149.4c0-5.22-4.4-9.69-9.84-9.69s-9.77,4.47-9.77,9.69,4.4,9.77,9.77,9.77,9.84-4.47,9.84-9.77ZM132.65,140.38v26.62h-9.17v-26.62h-5.59v-8.8h5.59v-12h9.17v12h9.39v8.8h-9.39ZM177.98,152.31h-26.99c1.04,4.32,4.55,7.38,9.84,7.38,3.21,0,6.64-1.19,8.72-3.95l6.26,5c-3.21,4.55-8.87,7.23-14.91,7.23-10.66,0-18.86-7.98-18.86-18.34s7.08-18.72,18.34-18.72c10.44,0,17.82,8.5,17.82,18.49,0,.97-.07,2.01-.22,2.91ZM151.29,145.6h17.67c-.52-3.58-4.25-6.34-8.65-6.34s-7.68,2.54-9.02,6.34ZM216.72,167h-9.17v-2.31c-2.83,2.31-6.19,3.28-9.84,3.28-10.44,0-18.79-8.35-18.79-18.57s8.35-18.49,18.79-18.49c3.58,0,6.93.97,9.84,3.28v-22.37h9.17v55.18ZM207.54,149.4c0-5.22-4.4-9.69-9.84-9.69s-9.77,4.47-9.77,9.69,4.4,9.77,9.77,9.77,9.84-4.47,9.84-9.77Z"/>
        </g>
      </g>
    </g>
  </g>
</svg>