<svg width="264" height="264" viewBox="0 0 264 264" fill="none" xmlns="http://www.w3.org/2000/svg">
<g clip-path="url(#clip0_1_768)">
<circle cx="132" cy="132" r="132" fill="#2C25A5"/>
<path d="M40.4697 152H34.4437V123.756H23.4957V117.96H51.3717V123.756H40.4697V152ZM70.006 141.144C70.006 144.548 68.7333 147.385 66.188 149.654C63.98 151.617 61.3733 152.598 58.368 152.598C54.9333 152.598 52.066 151.341 49.766 148.826C47.7727 146.649 46.776 144.088 46.776 141.144C46.776 137.74 48.0487 134.919 50.594 132.68C52.7713 130.717 55.3627 129.736 58.368 129.736C61.8333 129.736 64.716 130.993 67.016 133.508C69.0093 135.655 70.006 138.2 70.006 141.144ZM64.44 141.144C64.44 139.396 63.7654 137.924 62.416 136.728C61.2507 135.685 59.9013 135.164 58.368 135.164C56.5893 135.164 55.102 135.839 53.906 137.188C52.8633 138.323 52.342 139.641 52.342 141.144C52.342 142.892 53.0013 144.379 54.32 145.606C55.4853 146.649 56.8347 147.17 58.368 147.17C60.1467 147.17 61.6494 146.495 62.876 145.146C63.9187 144.011 64.44 142.677 64.44 141.144ZM80.733 163.638H75.075V130.15H80.733V131.76C82.389 130.411 84.413 129.736 86.805 129.736C90.2703 129.736 93.1377 130.993 95.407 133.508C97.4003 135.655 98.397 138.2 98.397 141.144C98.397 144.548 97.1243 147.385 94.579 149.654C92.371 151.617 89.7797 152.598 86.805 152.598C84.413 152.598 82.389 151.923 80.733 150.574V163.638ZM80.733 140.914V141.42C80.7943 143.107 81.4843 144.517 82.803 145.652C83.9683 146.664 85.3023 147.17 86.805 147.17C88.5837 147.17 90.071 146.495 91.267 145.146C92.3097 144.011 92.831 142.677 92.831 141.144C92.831 139.427 92.1563 137.955 90.807 136.728C89.6723 135.685 88.3383 135.164 86.805 135.164C85.057 135.164 83.585 135.808 82.389 137.096C81.3463 138.2 80.7943 139.473 80.733 140.914ZM141.21 152H134.448L126.214 137.878H122.12V152H116.094V117.96H129.894C133.513 117.96 136.273 118.987 138.174 121.042C139.799 122.79 140.612 125.09 140.612 127.942C140.612 130.702 139.845 132.941 138.312 134.658C136.963 136.191 135.107 137.157 132.746 137.556L141.21 152ZM122.12 132.082H129.986C131.489 132.082 132.654 131.668 133.482 130.84C134.218 130.135 134.586 129.184 134.586 127.988C134.586 126.577 134.111 125.489 133.16 124.722C132.363 124.078 131.305 123.756 129.986 123.756H122.12V132.082ZM166.411 152H160.753V150.574C159.097 151.923 157.073 152.598 154.681 152.598C151.246 152.598 148.379 151.341 146.079 148.826C144.085 146.649 143.089 144.088 143.089 141.144C143.089 137.74 144.361 134.919 146.907 132.68C149.084 130.717 151.675 129.736 154.681 129.736C157.011 129.736 159.035 130.411 160.753 131.76V130.15H166.411V152ZM160.753 141.144C160.753 139.396 160.078 137.924 158.729 136.728C157.563 135.685 156.214 135.164 154.681 135.164C152.902 135.164 151.415 135.839 150.219 137.188C149.176 138.323 148.655 139.641 148.655 141.144C148.655 142.892 149.314 144.379 150.633 145.606C151.798 146.649 153.147 147.17 154.681 147.17C156.459 147.17 157.962 146.495 159.189 145.146C160.231 144.011 160.753 142.677 160.753 141.144ZM179.897 135.578V152H174.239V135.578H170.789V130.15H174.239V122.744H179.897V130.15H185.693V135.578H179.897ZM211.081 142.938H194.429C194.797 144.41 195.548 145.56 196.683 146.388C197.756 147.124 199.029 147.492 200.501 147.492C202.862 147.492 204.656 146.679 205.883 145.054L209.747 148.136C208.704 149.639 207.278 150.789 205.469 151.586C203.935 152.261 202.295 152.598 200.547 152.598C197.02 152.598 194.122 151.371 191.853 148.918C189.89 146.802 188.909 144.257 188.909 141.282C188.909 137.847 190.059 135.011 192.359 132.772C194.444 130.748 197.066 129.736 200.225 129.736C203.598 129.736 206.358 131.009 208.505 133.554C210.314 135.701 211.219 138.231 211.219 141.144C211.219 141.819 211.173 142.417 211.081 142.938ZM194.613 138.798H205.515C205.331 137.633 204.671 136.667 203.537 135.9C202.555 135.225 201.436 134.888 200.179 134.888C198.891 134.888 197.741 135.241 196.729 135.946C195.747 136.651 195.042 137.602 194.613 138.798ZM238.196 152H232.538V150.574C230.882 151.923 228.858 152.598 226.466 152.598C223.031 152.598 220.164 151.341 217.864 148.826C215.87 146.649 214.874 144.088 214.874 141.144C214.874 137.74 216.146 134.919 218.692 132.68C220.869 130.717 223.46 129.736 226.466 129.736C228.796 129.736 230.82 130.411 232.538 131.76V117.96H238.196V152ZM232.538 141.144C232.538 139.396 231.863 137.924 230.514 136.728C229.348 135.685 227.999 135.164 226.466 135.164C224.687 135.164 223.2 135.839 222.004 137.188C220.961 138.323 220.44 139.641 220.44 141.144C220.44 142.892 221.099 144.379 222.418 145.606C223.583 146.649 224.932 147.17 226.466 147.17C228.244 147.17 229.747 146.495 230.974 145.146C232.016 144.011 232.538 142.677 232.538 141.144Z" fill="white"/>
<path d="M101.758 216H80.9661V211.538L90.9021 201.648C93.3247 199.225 94.9961 197.278 95.9161 195.806C96.8667 194.303 97.3421 192.801 97.3421 191.298C97.3421 189.427 96.7441 187.925 95.5481 186.79C94.5361 185.809 93.2174 185.318 91.5921 185.318C89.8441 185.318 88.4641 185.901 87.4521 187.066C86.5321 188.078 85.9341 189.473 85.6581 191.252H81.1041C81.4721 187.879 82.6834 185.333 84.7381 183.616C86.5167 182.113 88.8167 181.362 91.6381 181.362C94.9194 181.362 97.5261 182.313 99.4581 184.214C101.206 185.931 102.08 188.185 102.08 190.976C102.08 192.969 101.589 194.901 100.608 196.772C99.6574 198.643 98.1241 200.636 96.0081 202.752L87.1761 211.584H101.758V216ZM129.585 193.644V203.58C129.585 207.597 128.619 210.771 126.687 213.102C124.786 215.433 122.103 216.598 118.637 216.598C114.773 216.598 111.891 215.172 109.989 212.32C108.456 210.051 107.689 207.137 107.689 203.58V193.644C107.689 189.903 108.732 186.897 110.817 184.628C112.78 182.451 115.387 181.362 118.637 181.362C122.256 181.362 125.077 182.696 127.101 185.364C128.757 187.572 129.585 190.332 129.585 193.644ZM124.939 203.258V194.288C124.939 191.62 124.418 189.535 123.375 188.032C122.302 186.468 120.723 185.686 118.637 185.686C116.307 185.686 114.605 186.637 113.531 188.538C112.703 190.01 112.289 191.927 112.289 194.288V203.258C112.289 206.202 112.765 208.41 113.715 209.882C114.727 211.507 116.368 212.32 118.637 212.32C121.121 212.32 122.854 211.339 123.835 209.376C124.571 207.935 124.939 205.895 124.939 203.258ZM155.44 216H134.648V211.538L144.584 201.648C147.006 199.225 148.678 197.278 149.598 195.806C150.548 194.303 151.024 192.801 151.024 191.298C151.024 189.427 150.426 187.925 149.23 186.79C148.218 185.809 146.899 185.318 145.274 185.318C143.526 185.318 142.146 185.901 141.134 187.066C140.214 188.078 139.616 189.473 139.34 191.252H134.786C135.154 187.879 136.365 185.333 138.42 183.616C140.198 182.113 142.498 181.362 145.32 181.362C148.601 181.362 151.208 182.313 153.14 184.214C154.888 185.931 155.762 188.185 155.762 190.976C155.762 192.969 155.271 194.901 154.29 196.772C153.339 198.643 151.806 200.636 149.69 202.752L140.858 211.584H155.44V216ZM182.393 216H161.601V211.538L171.537 201.648C173.959 199.225 175.631 197.278 176.551 195.806C177.501 194.303 177.977 192.801 177.977 191.298C177.977 189.427 177.379 187.925 176.183 186.79C175.171 185.809 173.852 185.318 172.227 185.318C170.479 185.318 169.099 185.901 168.087 187.066C167.167 188.078 166.569 189.473 166.293 191.252H161.739C162.107 187.879 163.318 185.333 165.373 183.616C167.151 182.113 169.451 181.362 172.273 181.362C175.554 181.362 178.161 182.313 180.093 184.214C181.841 185.931 182.715 188.185 182.715 190.976C182.715 192.969 182.224 194.901 181.243 196.772C180.292 198.643 178.759 200.636 176.643 202.752L167.811 211.584H182.393V216Z" fill="#CDB37E"/>
<path fill-rule="evenodd" clip-rule="evenodd" d="M70.9198 82.639C69.6832 83.5639 68.4069 82.5923 68.8635 81.0716L70.7369 74.8317L65.6931 70.9371C64.4716 69.994 64.9477 68.4087 66.4717 68.4087H72.767L74.7343 62.1334C75.2099 60.6164 76.7918 60.628 77.2638 62.1334L79.2311 68.4087H85.5263C87.0594 68.4087 87.5252 69.995 86.305 70.9371L81.2611 74.8317L83.1345 81.0716C83.5908 82.5913 82.3157 83.5645 81.0783 82.639L75.999 78.8401L70.9198 82.639Z" fill="#CDB37E"/>
<path fill-rule="evenodd" clip-rule="evenodd" d="M98.9198 82.639C97.6832 83.5639 96.4069 82.5923 96.8635 81.0716L98.7369 74.8317L93.6931 70.9371C92.4716 69.994 92.9477 68.4087 94.4717 68.4087H100.767L102.734 62.1334C103.21 60.6164 104.792 60.628 105.264 62.1334L107.231 68.4087H113.526C115.059 68.4087 115.525 69.995 114.305 70.9371L109.261 74.8317L111.135 81.0716C111.591 82.5913 110.316 83.5645 109.078 82.639L103.999 78.8401L98.9198 82.639Z" fill="#CDB37E"/>
<path fill-rule="evenodd" clip-rule="evenodd" d="M126.92 82.639C125.683 83.5639 124.407 82.5923 124.864 81.0716L126.737 74.8317L121.693 70.9371C120.472 69.994 120.948 68.4087 122.472 68.4087H128.767L130.734 62.1334C131.21 60.6164 132.792 60.628 133.264 62.1334L135.231 68.4087H141.526C143.059 68.4087 143.525 69.995 142.305 70.9371L137.261 74.8317L139.135 81.0716C139.591 82.5913 138.316 83.5645 137.078 82.639L131.999 78.8401L126.92 82.639Z" fill="#CDB37E"/>
<path fill-rule="evenodd" clip-rule="evenodd" d="M154.92 82.639C153.683 83.5639 152.407 82.5923 152.864 81.0716L154.737 74.8317L149.693 70.9371C148.472 69.994 148.948 68.4087 150.472 68.4087H156.767L158.734 62.1334C159.21 60.6164 160.792 60.628 161.264 62.1334L163.231 68.4087H169.526C171.059 68.4087 171.525 69.995 170.305 70.9371L165.261 74.8317L167.135 81.0716C167.591 82.5913 166.316 83.5645 165.078 82.639L159.999 78.8401L154.92 82.639Z" fill="#CDB37E"/>
<path fill-rule="evenodd" clip-rule="evenodd" d="M182.92 82.639C181.683 83.5639 180.407 82.5923 180.864 81.0716L182.737 74.8317L177.693 70.9371C176.472 69.994 176.948 68.4087 178.472 68.4087H184.767L186.734 62.1334C187.21 60.6164 188.792 60.628 189.264 62.1334L191.231 68.4087H197.526C199.059 68.4087 199.525 69.995 198.305 70.9371L193.261 74.8317L195.135 81.0716C195.591 82.5913 194.316 83.5645 193.078 82.639L187.999 78.8401L182.92 82.639Z" fill="#CDB37E"/>
</g>
<defs>
<clipPath id="clip0_1_768">
<rect width="264" height="264" fill="white"/>
</clipPath>
</defs>
</svg>
